<mxfile host="app.diagrams.net" modified="2024-04-25T19:00:38.390Z" agent="Mozilla/5.0 (Macintosh; Intel Mac OS X 10.15; rv:125.0) Gecko/20100101 Firefox/125.0" etag="X3PMC1sDncfaq0jzfILk" version="24.2.5" type="device">
  <diagram name="Page-1" id="ITtBlx-jtGJzWSzy3ZjR">
    <mxGraphModel dx="1140" dy="762" grid="1" gridSize="10" guides="1" tooltips="1" connect="1" arrows="1" fold="1" page="1" pageScale="1" pageWidth="850" pageHeight="1100" math="0" shadow="0">
      <root>
        <mxCell id="0" />
        <mxCell id="1" parent="0" />
        <mxCell id="wnIvHIf39yrH7xQtYpJv-2" value="&lt;b&gt;Dataset&lt;/b&gt;" style="ellipse;whiteSpace=wrap;html=1;" vertex="1" parent="1">
          <mxGeometry x="241.25" y="40" width="117.5" height="62.5" as="geometry" />
        </mxCell>
        <mxCell id="wnIvHIf39yrH7xQtYpJv-3" value="&lt;b&gt;Annotation&lt;/b&gt;" style="rounded=0;whiteSpace=wrap;html=1;" vertex="1" parent="1">
          <mxGeometry x="240" y="151" width="120" height="60" as="geometry" />
        </mxCell>
        <mxCell id="wnIvHIf39yrH7xQtYpJv-4" value="&lt;b&gt;Removed&lt;/b&gt;" style="rounded=0;whiteSpace=wrap;html=1;" vertex="1" parent="1">
          <mxGeometry x="430" y="45" width="85.5" height="52.5" as="geometry" />
        </mxCell>
        <mxCell id="wnIvHIf39yrH7xQtYpJv-7" value="&lt;div&gt;&lt;b&gt;Training Set (88%)&lt;/b&gt;&lt;/div&gt;" style="rounded=0;whiteSpace=wrap;html=1;" vertex="1" parent="1">
          <mxGeometry x="80" y="369.75" width="120" height="60" as="geometry" />
        </mxCell>
        <mxCell id="wnIvHIf39yrH7xQtYpJv-8" value="&lt;div&gt;&lt;b&gt;Validation Set (8%)&lt;/b&gt;&lt;/div&gt;" style="rounded=0;whiteSpace=wrap;html=1;" vertex="1" parent="1">
          <mxGeometry x="235" y="369.75" width="130" height="60" as="geometry" />
        </mxCell>
        <mxCell id="wnIvHIf39yrH7xQtYpJv-9" value="&lt;b&gt;Algae Detection Model&lt;/b&gt;" style="rounded=0;whiteSpace=wrap;html=1;" vertex="1" parent="1">
          <mxGeometry x="145" y="500" width="150" height="60" as="geometry" />
        </mxCell>
        <mxCell id="wnIvHIf39yrH7xQtYpJv-10" value="&lt;div&gt;&lt;b&gt;Test Set (4%)&lt;/b&gt;&lt;/div&gt;" style="rounded=0;whiteSpace=wrap;html=1;" vertex="1" parent="1">
          <mxGeometry x="403" y="369.75" width="112.5" height="60" as="geometry" />
        </mxCell>
        <mxCell id="wnIvHIf39yrH7xQtYpJv-11" value="&lt;b&gt;Prediction&lt;/b&gt;" style="rounded=0;whiteSpace=wrap;html=1;" vertex="1" parent="1">
          <mxGeometry x="411.75" y="500" width="95" height="60" as="geometry" />
        </mxCell>
        <mxCell id="wnIvHIf39yrH7xQtYpJv-12" value="" style="endArrow=classic;html=1;rounded=0;exitX=0.5;exitY=1;exitDx=0;exitDy=0;entryX=0.5;entryY=0;entryDx=0;entryDy=0;" edge="1" parent="1" source="wnIvHIf39yrH7xQtYpJv-2" target="wnIvHIf39yrH7xQtYpJv-3">
          <mxGeometry width="50" height="50" relative="1" as="geometry">
            <mxPoint x="375" y="121.25" as="sourcePoint" />
            <mxPoint x="425" y="71.25" as="targetPoint" />
          </mxGeometry>
        </mxCell>
        <mxCell id="wnIvHIf39yrH7xQtYpJv-13" value="" style="endArrow=classic;html=1;rounded=0;exitX=0.5;exitY=1;exitDx=0;exitDy=0;entryX=0.5;entryY=0;entryDx=0;entryDy=0;" edge="1" parent="1" source="wnIvHIf39yrH7xQtYpJv-3" target="wnIvHIf39yrH7xQtYpJv-32">
          <mxGeometry width="50" height="50" relative="1" as="geometry">
            <mxPoint x="365" y="419.75" as="sourcePoint" />
            <mxPoint x="300" y="249.75" as="targetPoint" />
          </mxGeometry>
        </mxCell>
        <mxCell id="wnIvHIf39yrH7xQtYpJv-14" value="" style="endArrow=classic;html=1;rounded=0;exitX=1;exitY=0.5;exitDx=0;exitDy=0;entryX=0;entryY=0.5;entryDx=0;entryDy=0;" edge="1" parent="1" source="wnIvHIf39yrH7xQtYpJv-2" target="wnIvHIf39yrH7xQtYpJv-4">
          <mxGeometry width="50" height="50" relative="1" as="geometry">
            <mxPoint x="340" y="391.25" as="sourcePoint" />
            <mxPoint x="390" y="341.25" as="targetPoint" />
            <Array as="points" />
          </mxGeometry>
        </mxCell>
        <mxCell id="wnIvHIf39yrH7xQtYpJv-22" value="" style="endArrow=classic;html=1;rounded=0;dashed=1;dashPattern=1 2;exitX=0.5;exitY=1;exitDx=0;exitDy=0;entryX=0.5;entryY=0;entryDx=0;entryDy=0;" edge="1" parent="1" source="wnIvHIf39yrH7xQtYpJv-10" target="wnIvHIf39yrH7xQtYpJv-11">
          <mxGeometry width="50" height="50" relative="1" as="geometry">
            <mxPoint x="549.25" y="489.75" as="sourcePoint" />
            <mxPoint x="599.25" y="439.75" as="targetPoint" />
          </mxGeometry>
        </mxCell>
        <mxCell id="wnIvHIf39yrH7xQtYpJv-25" value="" style="endArrow=classic;html=1;rounded=0;exitX=1;exitY=0.5;exitDx=0;exitDy=0;entryX=0;entryY=0.5;entryDx=0;entryDy=0;dashed=1;dashPattern=1 2;" edge="1" parent="1" source="wnIvHIf39yrH7xQtYpJv-9" target="wnIvHIf39yrH7xQtYpJv-11">
          <mxGeometry width="50" height="50" relative="1" as="geometry">
            <mxPoint x="350" y="540" as="sourcePoint" />
            <mxPoint x="400" y="490" as="targetPoint" />
          </mxGeometry>
        </mxCell>
        <mxCell id="wnIvHIf39yrH7xQtYpJv-31" value="&lt;b&gt;Augmentation&lt;/b&gt;" style="rounded=0;whiteSpace=wrap;html=1;" vertex="1" parent="1">
          <mxGeometry x="80" y="259.75" width="120" height="60" as="geometry" />
        </mxCell>
        <mxCell id="wnIvHIf39yrH7xQtYpJv-32" value="&lt;b&gt;Preprocessing&lt;/b&gt;" style="rounded=0;whiteSpace=wrap;html=1;" vertex="1" parent="1">
          <mxGeometry x="240" y="259.75" width="120" height="60" as="geometry" />
        </mxCell>
        <mxCell id="wnIvHIf39yrH7xQtYpJv-36" value="Unsuitable" style="text;html=1;align=center;verticalAlign=middle;whiteSpace=wrap;rounded=0;" vertex="1" parent="1">
          <mxGeometry x="355.75" y="57" width="70" height="10" as="geometry" />
        </mxCell>
        <mxCell id="wnIvHIf39yrH7xQtYpJv-44" value="" style="edgeStyle=segmentEdgeStyle;endArrow=classic;html=1;curved=0;rounded=0;endSize=6;startSize=6;exitX=1;exitY=0.5;exitDx=0;exitDy=0;entryX=0.5;entryY=0;entryDx=0;entryDy=0;" edge="1" parent="1" source="wnIvHIf39yrH7xQtYpJv-32" target="wnIvHIf39yrH7xQtYpJv-10">
          <mxGeometry width="50" height="50" relative="1" as="geometry">
            <mxPoint x="517.5" y="399.75" as="sourcePoint" />
            <mxPoint x="567.5" y="349.75" as="targetPoint" />
          </mxGeometry>
        </mxCell>
        <mxCell id="wnIvHIf39yrH7xQtYpJv-45" value="" style="edgeStyle=elbowEdgeStyle;elbow=vertical;endArrow=classic;html=1;curved=0;rounded=0;endSize=6;startSize=6;entryX=0.5;entryY=0;entryDx=0;entryDy=0;exitX=0.5;exitY=1;exitDx=0;exitDy=0;" edge="1" parent="1" source="wnIvHIf39yrH7xQtYpJv-8" target="wnIvHIf39yrH7xQtYpJv-9">
          <mxGeometry width="50" height="50" relative="1" as="geometry">
            <mxPoint x="340" y="679.75" as="sourcePoint" />
            <mxPoint x="390" y="629.75" as="targetPoint" />
            <Array as="points">
              <mxPoint x="260" y="460" />
            </Array>
          </mxGeometry>
        </mxCell>
        <mxCell id="wnIvHIf39yrH7xQtYpJv-46" value="" style="edgeStyle=elbowEdgeStyle;elbow=vertical;endArrow=classic;html=1;curved=0;rounded=0;endSize=6;startSize=6;exitX=0.5;exitY=1;exitDx=0;exitDy=0;entryX=0.5;entryY=0;entryDx=0;entryDy=0;" edge="1" parent="1" source="wnIvHIf39yrH7xQtYpJv-7" target="wnIvHIf39yrH7xQtYpJv-9">
          <mxGeometry width="50" height="50" relative="1" as="geometry">
            <mxPoint x="340" y="369.75" as="sourcePoint" />
            <mxPoint x="390" y="319.75" as="targetPoint" />
            <Array as="points">
              <mxPoint x="180" y="460" />
            </Array>
          </mxGeometry>
        </mxCell>
        <mxCell id="wnIvHIf39yrH7xQtYpJv-49" value="" style="endArrow=classic;html=1;rounded=0;exitX=0.5;exitY=1;exitDx=0;exitDy=0;entryX=0.5;entryY=0;entryDx=0;entryDy=0;" edge="1" parent="1" source="wnIvHIf39yrH7xQtYpJv-31" target="wnIvHIf39yrH7xQtYpJv-7">
          <mxGeometry width="50" height="50" relative="1" as="geometry">
            <mxPoint x="180" y="419.75" as="sourcePoint" />
            <mxPoint x="230" y="369.75" as="targetPoint" />
          </mxGeometry>
        </mxCell>
        <mxCell id="wnIvHIf39yrH7xQtYpJv-50" value="" style="endArrow=classic;html=1;rounded=0;exitX=0.5;exitY=1;exitDx=0;exitDy=0;entryX=0.5;entryY=0;entryDx=0;entryDy=0;" edge="1" parent="1" source="wnIvHIf39yrH7xQtYpJv-32" target="wnIvHIf39yrH7xQtYpJv-8">
          <mxGeometry width="50" height="50" relative="1" as="geometry">
            <mxPoint x="190" y="419.75" as="sourcePoint" />
            <mxPoint x="240" y="369.75" as="targetPoint" />
          </mxGeometry>
        </mxCell>
        <mxCell id="wnIvHIf39yrH7xQtYpJv-57" value="" style="endArrow=classic;html=1;rounded=0;exitX=0;exitY=0.5;exitDx=0;exitDy=0;entryX=1;entryY=0.5;entryDx=0;entryDy=0;" edge="1" parent="1" source="wnIvHIf39yrH7xQtYpJv-32" target="wnIvHIf39yrH7xQtYpJv-31">
          <mxGeometry width="50" height="50" relative="1" as="geometry">
            <mxPoint x="190" y="419.75" as="sourcePoint" />
            <mxPoint x="240" y="369.75" as="targetPoint" />
          </mxGeometry>
        </mxCell>
      </root>
    </mxGraphModel>
  </diagram>
</mxfile>
